<svg width="2000" height="1163.6363636363637" xmlns="http://www.w3.org/2000/svg" viewBox="-8 -32 110 64" id="court_editor" style="background-color:#fafafa"><defs><marker id="arrowend" markerWidth="10" markerHeight="10" refX="10" refY="5" orient="auto"><polygon fill="#000000" points="0 0, 10 5, 0 10"></polygon></marker><marker id="arrowstart" markerWidth="10" markerHeight="10" refX="0" refY="5" orient="auto"><polygon fill="#000000" points="10 0, 0 5, 10 10"></polygon></marker></defs><svg version="1.1" x="-10" y="-35" xml:space="preserve" preserveAspectRatio="xMinYMin slice" width="114" height="70" viewBox="0 0 5280 4000" xmlns="http://www.w3.org/2000/svg"><rect width="5280" height="4000" x="0" y="0" fill="#FFFFFF"></rect></svg><rect stroke-width="0.2" fill="none" stroke="#000000" y="-25" x="0" width="94" height="50"></rect><path stroke-width="0.2" fill="none" stroke="#000000" d="M 4 -3 L 4 3"></path><path stroke-width="0.2" fill="none" stroke="#000000" d="M  90 -3 L 90 3"></path><circle r="0.75" cy="0" cx="5.25" fill="none" stroke-width="0.2" stroke="#000000"></circle><circle r="0.75" cy="0" cx="88.75" fill="none" stroke-width="0.2" stroke="#000000"></circle><path stroke-width="0.2" fill="none" stroke="#000000" d="M 94 -8 L 75 -8 L 75 8 L 94 8"></path><path stroke-width="0.2" fill="none" stroke="#000000" d="M 0 -8 L 19 -8 L 19 8 L 0 8"></path><path stroke-width="0.2" fill="none" stroke="#000000" d="M 19 6 A 6 6 0 0 0 19 -6"></path><path stroke-width="0.2" fill="none" stroke-dasharray="1,1" stroke="#000000" d="M 75 6 A 6 6 0 0 0 75 -6"></path><path stroke-width="0.2" fill="none" stroke-dasharray="1,1" stroke="#000000" d="M 19 -6 A 6 6 0 0 0 19 6"></path><path stroke-width="0.2" fill="none" stroke="#000000" d="M 75 -6 A 6 6 0 0 0 75 6"></path><path stroke-width="0.2" fill="none" stroke="#000000" d="M 0 -22 L 14.25 -22"></path><path stroke-width="0.2" fill="none" stroke="#000000" d="M 0 22 L 14.25 22"></path><path stroke-width="0.2" fill="none" stroke="#000000" d="M 94 -22 L 79.75 -22"></path><path stroke-width="0.2" fill="none" stroke="#000000" d="M 94 22 L 79.75 22"></path><path stroke-width="0.2" fill="none" stroke="#000000" d="M 14.1977650841 22 A 23.75 23.75 0 0 0 14.1977650841 -22"></path><path stroke-width="0.2" fill="none" stroke="#000000" d="M 79.8022349159 -22 A 23.75 23.75 0 0 0 79.8022349159 22"></path><circle r="6" cy="0" cx="47" fill="none" stroke-width="0.2" stroke="#000000"></circle><path stroke-width="0.2" fill="none" stroke="#000000" d="M 47 -25 L 47 25"></path><path stroke-width="0.2" fill="none" stroke="#000000" d="M 5.25 4 A 4 4 0 0 0 5.25 -4"></path><path stroke-width="0.2" fill="none" stroke="#000000" d="M 88.75 -4 A 4 4 0 0 0 88.75 4"></path><g><path stroke-width="0.2" fill="none" stroke="#000000" d="M 28 -25 L 28 -22"></path><path stroke-width="0.2" fill="none" stroke="#000000" d="M 66 -25 L 66 -22"></path><path stroke-width="0.2" fill="none" stroke="#000000" d="M 28 25 L 28 22"></path><path stroke-width="0.2" fill="none" stroke="#000000" d="M 66 25 L 66 22"></path></g><g><path stroke-width="0.2" fill="none" stroke="#000000" d="M 43 -25 L 43 -26"></path><path stroke-width="0.2" fill="none" stroke="#000000" d="M 51 -25 L 51 -26"></path></g><g><line x1="15" y1="-8" x2="15" y2="-8.5" stroke="#000000" stroke-width="0.2"></line><line x1="12" y1="-8" x2="12" y2="-8.5" stroke="#000000" stroke-width="0.2"></line><line x1="8" y1="-8" x2="8" y2="-8.5" stroke="#000000" stroke-width="0.2"></line><line x1="7" y1="-8" x2="7" y2="-8.5" stroke="#000000" stroke-width="0.2"></line><line x1="15" y1="8" x2="15" y2="8.5" stroke="#000000" stroke-width="0.2"></line><line x1="12" y1="8" x2="12" y2="8.5" stroke="#000000" stroke-width="0.2"></line><line x1="8" y1="8" x2="8" y2="8.5" stroke="#000000" stroke-width="0.2"></line><line x1="7" y1="8" x2="7" y2="8.5" stroke="#000000" stroke-width="0.2"></line><line x1="79" y1="-8" x2="79" y2="-8.5" stroke="#000000" stroke-width="0.2"></line><line x1="82" y1="-8" x2="82" y2="-8.5" stroke="#000000" stroke-width="0.2"></line><line x1="86" y1="-8" x2="86" y2="-8.5" stroke="#000000" stroke-width="0.2"></line><line x1="87" y1="-8" x2="87" y2="-8.5" stroke="#000000" stroke-width="0.2"></line><line x1="79" y1="8" x2="79" y2="8.5" stroke="#000000" stroke-width="0.2"></line><line x1="82" y1="8" x2="82" y2="8.5" stroke="#000000" stroke-width="0.2"></line><line x1="86" y1="8" x2="86" y2="8.5" stroke="#000000" stroke-width="0.2"></line><line x1="87" y1="8" x2="87" y2="8.5" stroke="#000000" stroke-width="0.2"></line></g></svg>