<svg width="2000" height="1163.6363636363637" xmlns="http://www.w3.org/2000/svg" viewBox="-8 -32 110 64" id="court_editor" style="background-color:#fafafa"><defs><marker id="arrowend" markerWidth="10" markerHeight="10" refX="10" refY="5" orient="auto"><polygon fill="#000000" points="0 0, 10 5, 0 10"></polygon></marker><marker id="arrowstart" markerWidth="10" markerHeight="10" refX="0" refY="5" orient="auto"><polygon fill="#000000" points="10 0, 0 5, 10 10"></polygon></marker></defs><svg version="1.1" x="-10" y="-35" xml:space="preserve" preserveAspectRatio="xMinYMin slice" width="114" height="70" viewBox="0 0 5280 4000" xmlns="http://www.w3.org/2000/svg"><rect width="5280" height="4000" x="0" y="0" fill="#000000"></rect></svg><rect stroke-width="0.2" fill="none" stroke="#FFFFFF" y="-25" x="0" width="94" height="50"></rect><path stroke-width="0.2" fill="none" stroke="#FFFFFF" d="M 4 -3 L 4 3"></path><path stroke-width="0.2" fill="none" stroke="#FFFFFF" d="M  90 -3 L 90 3"></path><circle r="0.75" cy="0" cx="5.25" fill="none" stroke-width="0.2" stroke="#FFFFFF"></circle><circle r="0.75" cy="0" cx="88.75" fill="none" stroke-width="0.2" stroke="#FFFFFF"></circle><path stroke-width="0.2" fill="none" stroke="#FFFFFF" d="M 94 -8 L 75 -8 L 75 8 L 94 8"></path><path stroke-width="0.2" fill="none" stroke="#FFFFFF" d="M 0 -8 L 19 -8 L 19 8 L 0 8"></path><path stroke-width="0.2" fill="none" stroke="#FFFFFF" d="M 19 6 A 6 6 0 0 0 19 -6"></path><path stroke-width="0.2" fill="none" stroke-dasharray="1,1" stroke="#FFFFFF" d="M 75 6 A 6 6 0 0 0 75 -6"></path><path stroke-width="0.2" fill="none" stroke-dasharray="1,1" stroke="#FFFFFF" d="M 19 -6 A 6 6 0 0 0 19 6"></path><path stroke-width="0.2" fill="none" stroke="#FFFFFF" d="M 75 -6 A 6 6 0 0 0 75 6"></path><path stroke-width="0.2" fill="none" stroke="#FFFFFF" d="M 0 -22 L 14.25 -22"></path><path stroke-width="0.2" fill="none" stroke="#FFFFFF" d="M 0 22 L 14.25 22"></path><path stroke-width="0.2" fill="none" stroke="#FFFFFF" d="M 94 -22 L 79.75 -22"></path><path stroke-width="0.2" fill="none" stroke="#FFFFFF" d="M 94 22 L 79.75 22"></path><path stroke-width="0.2" fill="none" stroke="#FFFFFF" d="M 14.1977650841 22 A 23.75 23.75 0 0 0 14.1977650841 -22"></path><path stroke-width="0.2" fill="none" stroke="#FFFFFF" d="M 79.8022349159 -22 A 23.75 23.75 0 0 0 79.8022349159 22"></path><circle r="6" cy="0" cx="47" fill="none" stroke-width="0.2" stroke="#FFFFFF"></circle><path stroke-width="0.2" fill="none" stroke="#FFFFFF" d="M 47 -25 L 47 25"></path><path stroke-width="0.2" fill="none" stroke="#FFFFFF" d="M 5.25 4 A 4 4 0 0 0 5.25 -4"></path><path stroke-width="0.2" fill="none" stroke="#FFFFFF" d="M 88.75 -4 A 4 4 0 0 0 88.75 4"></path><g><path stroke-width="0.2" fill="none" stroke="#FFFFFF" d="M 28 -25 L 28 -22"></path><path stroke-width="0.2" fill="none" stroke="#FFFFFF" d="M 66 -25 L 66 -22"></path><path stroke-width="0.2" fill="none" stroke="#FFFFFF" d="M 28 25 L 28 22"></path><path stroke-width="0.2" fill="none" stroke="#FFFFFF" d="M 66 25 L 66 22"></path></g><g><path stroke-width="0.2" fill="none" stroke="#FFFFFF" d="M 43 -25 L 43 -26"></path><path stroke-width="0.2" fill="none" stroke="#FFFFFF" d="M 51 -25 L 51 -26"></path></g><g><line x1="15" y1="-8" x2="15" y2="-8.5" stroke="#FFFFFF" stroke-width="0.2"></line><line x1="12" y1="-8" x2="12" y2="-8.5" stroke="#FFFFFF" stroke-width="0.2"></line><line x1="8" y1="-8" x2="8" y2="-8.5" stroke="#FFFFFF" stroke-width="0.2"></line><line x1="7" y1="-8" x2="7" y2="-8.5" stroke="#FFFFFF" stroke-width="0.2"></line><line x1="15" y1="8" x2="15" y2="8.5" stroke="#FFFFFF" stroke-width="0.2"></line><line x1="12" y1="8" x2="12" y2="8.5" stroke="#FFFFFF" stroke-width="0.2"></line><line x1="8" y1="8" x2="8" y2="8.5" stroke="#FFFFFF" stroke-width="0.2"></line><line x1="7" y1="8" x2="7" y2="8.5" stroke="#FFFFFF" stroke-width="0.2"></line><line x1="79" y1="-8" x2="79" y2="-8.5" stroke="#FFFFFF" stroke-width="0.2"></line><line x1="82" y1="-8" x2="82" y2="-8.5" stroke="#FFFFFF" stroke-width="0.2"></line><line x1="86" y1="-8" x2="86" y2="-8.5" stroke="#FFFFFF" stroke-width="0.2"></line><line x1="87" y1="-8" x2="87" y2="-8.5" stroke="#FFFFFF" stroke-width="0.2"></line><line x1="79" y1="8" x2="79" y2="8.5" stroke="#FFFFFF" stroke-width="0.2"></line><line x1="82" y1="8" x2="82" y2="8.5" stroke="#FFFFFF" stroke-width="0.2"></line><line x1="86" y1="8" x2="86" y2="8.5" stroke="#FFFFFF" stroke-width="0.2"></line><line x1="87" y1="8" x2="87" y2="8.5" stroke="#FFFFFF" stroke-width="0.2"></line></g><g id="labels"><g id="court_length"><line x1="0" y1="-28" x2="41" y2="-28" stroke-dasharray="0.2 0.2" stroke="#000000" stroke-width="0.1" marker-start="url(#arrowstart)"></line><line x1="53" y1="-28" x2="94" y2="-28" stroke-dasharray="0.2 0.2" stroke="#000000" stroke-width="0.1" marker-end="url(#arrowend)"></line><text fill="#000000" font-size="1.5" x="47" y="-28" font-family="Open Sans" dominant-baseline="central" text-anchor="middle">94′ | 28.65m</text></g><g id="court_width"><line x1="-4" y1="-25" x2="-4" y2="-3" stroke-dasharray="0.2 0.2" stroke="#000000" stroke-width="0.1" marker-start="url(#arrowstart)"></line><line x1="-4" y1="3" x2="-4" y2="25" stroke-dasharray="0.2 0.2" stroke="#000000" stroke-width="0.1" marker-end="url(#arrowend)"></line><text fill="#000000" font-size="1.5" x="-4" y="-1" font-family="Open Sans" dominant-baseline="central" text-anchor="middle">50′</text><text fill="#000000" font-size="1.5" x="-4" y="1" font-family="Open Sans" dominant-baseline="central" text-anchor="middle">15.24m</text></g><g id="charging_circle"><line x2="5.25" y2="0" x1="5.25" y1="-4" stroke-dasharray="0.2 0.2" stroke="#000000" stroke-width="0.1" marker-start="url(#arrowstart)"></line><text fill="#000000" font-size="1.5" x="6.25" y="-5.25" font-family="Open Sans" dominant-baseline="central" text-anchor="middle">4′ | 1.22m</text></g><g id="three_point_line"><line x1="22.05" y1="16.8" x2="5.25" y2="0" stroke-dasharray="0.2 0.2" stroke="#000000" stroke-width="0.1" marker-start="url(#arrowstart)"></line><text fill="#000000" font-size="1.5" transform="rotate(45,22.05,16.8)" x="18.05" y="15.3" font-family="Open Sans" dominant-baseline="central" text-anchor="end">23′9″</text><text fill="#000000" font-size="1.5" transform="rotate(45,22.05,16.8)" x="18.05" y="18.3" font-family="Open Sans" dominant-baseline="central" text-anchor="end">7.24m</text></g><g id="corner_three"><line x1="5.25" y1="22" x2="5.25" y2="18" stroke-dasharray="0.2 0.2" stroke="#000000" stroke-width="0.1" marker-start="url(#arrowstart)"></line><line x1="5.25" y1="11.5" x2="5.25" y2="0" stroke-dasharray="0.2 0.2" stroke="#000000" stroke-width="0.1"></line><text fill="#000000" font-size="1.5" x="5.25" y="13.75" font-family="Open Sans" dominant-baseline="central" text-anchor="middle">22′</text><text fill="#000000" font-size="1.5" x="5.25" y="15.75" font-family="Open Sans" dominant-baseline="central" text-anchor="middle">6.71m</text></g><g id="three_point_corner_space"><line x1="8" y1="22" x2="8" y2="25" stroke-dasharray="0.2 0.2" stroke="#000000" stroke-width="0.1" marker-end="url(#arrowend)" marker-start="url(#arrowstart)"></line><text fill="#000000" font-size="1.5" x="7" y="23.5" font-family="Open Sans" dominant-baseline="central" text-anchor="end">3′</text><text fill="#000000" font-size="1.5" x="9" y="23.5" font-family="Open Sans" dominant-baseline="central" text-anchor="left">0.91m</text></g><g id="middle_circle"><line x2="47" y2="0" x1="53" y1="0" stroke-dasharray="0.2 0.2" stroke="#000000" stroke-width="0.1" marker-end="url(#arrowend)" marker-start="url(#arrowstart)"></line><text fill="#000000" font-size="1.5" x="50" y="-1.25" font-family="Open Sans" dominant-baseline="central" text-anchor="middle">6′</text><text fill="#000000" font-size="1.5" x="50" y="1.5" font-family="Open Sans" dominant-baseline="central" text-anchor="middle">1.83m</text></g><g id="free_throw_circle"><line x2="19" y2="0" x1="25" y1="0" stroke-dasharray="0.2 0.2" stroke="#000000" stroke-width="0.1" marker-end="url(#arrowend)" marker-start="url(#arrowstart)"></line><text fill="#000000" font-size="1.5" x="22" y="-1.25" font-family="Open Sans" dominant-baseline="central" text-anchor="middle">6′</text><text fill="#000000" font-size="1.5" x="22" y="1.5" font-family="Open Sans" dominant-baseline="central" text-anchor="middle">1.83m</text></g><g id="key_width"><line x2="81" y2="-2.5" x1="81" y1="-8" stroke-dasharray="0.2 0.2" stroke="#000000" stroke-width="0.1" marker-start="url(#arrowstart)"></line><line x2="81" y2="8" x1="81" y1="2.5" stroke-dasharray="0.2 0.2" stroke="#000000" stroke-width="0.1" marker-end="url(#arrowend)"></line><text fill="#000000" font-size="1.5" x="82" y="-1" font-family="Open Sans" dominant-baseline="central" text-anchor="middle">16′</text><text fill="#000000" font-size="1.5" x="82" y="1" font-family="Open Sans" dominant-baseline="central" text-anchor="middle">4.88m</text></g><g id="three_point_straight_line"><line x2="79.8" y2="23.5" x1="82.5" y1="23.5" stroke-dasharray="0.2 0.2" stroke="#000000" stroke-width="0.1" marker-end="url(#arrowend)"></line><line x2="91.3" y2="23.5" x1="94" y1="23.5" stroke-dasharray="0.2 0.2" stroke="#000000" stroke-width="0.1" marker-start="url(#arrowstart)"></line><text fill="#000000" font-size="1.5" x="87" y="23.5" font-family="Open Sans" dominant-baseline="central" text-anchor="middle">14′ | 4.27m</text></g><g id="backboard"><line x2="91" y2="-3" x1="91" y1="3" stroke-dasharray="0.2 0.2" stroke="#000000" stroke-width="0.1" marker-end="url(#arrowend)" marker-start="url(#arrowstart)"></line><text fill="#000000" font-size="1.5" x="92" y="-1" font-family="Open Sans" dominant-baseline="central" text-anchor="left">72″</text><text fill="#000000" font-size="1.5" x="92" y="1" font-family="Open Sans" dominant-baseline="central" text-anchor="left">1.83m</text></g><g id="free_throw_line"><line x1="0" y1="-10" x2="4.5" y2="-10" stroke-dasharray="0.2 0.2" stroke="#000000" stroke-width="0.1" marker-start="url(#arrowstart)"></line><line x1="14.5" y1="-10" x2="19" y2="-10" stroke-dasharray="0.2 0.2" stroke="#000000" stroke-width="0.1" marker-end="url(#arrowend)"></line><text fill="#000000" font-size="1.5" x="9.5" y="-10" font-family="Open Sans" dominant-baseline="central" text-anchor="middle">19′ | 5.79m</text></g><g id="timeout_hash"><line x1="0" y1="-23.5" x2="14" y2="-23.5" stroke-dasharray="0.2 0.2" stroke="#000000" stroke-width="0.1" marker-start="url(#arrowstart)"></line><line x1="25" y1="-23.5" x2="28" y2="-23.5" stroke-dasharray="0.2 0.2" stroke="#000000" stroke-width="0.1" marker-end="url(#arrowend)"></line><text fill="#000000" font-size="1.5" line-height="1" x="19.5" y="-23.5" font-family="Open Sans" dominant-baseline="central" text-anchor="middle">28′ | 8.53m</text></g><g><line x1="0" y1="0" x2="4" y2="0" stroke-dasharray="0.2 0.2" stroke="#000000" stroke-width="0.1" marker-end="url(#arrowend)" marker-start="url(#arrowstart)"></line><text fill="#000000" font-size="1.5" x="2" y="-1" font-family="Open Sans" dominant-baseline="central" text-anchor="middle">4′</text></g><g><line x1="78" y1="10" x2="75" y2="10" stroke-dasharray="0.2 0.2" stroke="#000000" stroke-width="0.1" marker-end="url(#arrowend)"></line><line x1="87" y1="10" x2="90" y2="10" stroke-dasharray="0.2 0.2" stroke="#000000" stroke-width="0.1" marker-end="url(#arrowend)"></line><text fill="#000000" font-size="1.5" x="82.5" y="10" font-family="Open Sans" dominant-baseline="central" text-anchor="middle">15′ | 4.57m</text></g></g></svg>